<svg width="24" height="24" viewBox="0 0 24 24" fill="none" xmlns="http://www.w3.org/2000/svg">
<path fill-rule="evenodd" clip-rule="evenodd" d="M16.3709 1.23746C16.2605 1.12706 16.1494 1.03223 16.0398 0.950829C15.6529 0.663439 15.2117 0.628834 14.8047 0.742649C14.4043 0.854629 14.0312 1.11009 13.7388 1.4174C11.4696 3.80278 9.2529 6.5544 8.30545 7.75615C8.131 7.97745 8.0003 8.2537 7.9671 8.537C7.93335 8.8254 8.00125 9.1313 8.23925 9.36925C8.4772 9.60725 8.7831 9.67515 9.0715 9.6414C9.3548 9.6082 9.63105 9.4775 9.85235 9.30305C11.0541 8.35565 13.8056 6.1391 16.1909 3.86992C16.4983 3.5775 16.7538 3.20426 16.8658 2.80376C16.9796 2.3967 16.9449 1.95543 16.6575 1.56845C16.5761 1.4589 16.4813 1.34781 16.3709 1.23746ZM23.034 4.34435C22.9559 4.20914 22.8731 4.08878 22.7883 3.98178C22.489 3.60404 22.0718 3.45643 21.6492 3.46104C21.2335 3.46557 20.8069 3.61575 20.445 3.83692C17.6357 5.5537 14.7824 7.63785 13.5562 8.55345C13.3304 8.72205 13.1327 8.95505 13.0273 9.2201C12.92 9.4899 12.9065 9.803 13.0747 10.0944C13.243 10.3859 13.5209 10.5307 13.8082 10.5727C14.0905 10.614 14.3911 10.5592 14.65 10.448C16.056 9.8439 19.2874 8.415 22.1788 6.8405C22.5514 6.6376 22.8947 6.34325 23.1066 5.98535C23.3219 5.6216 23.4026 5.1864 23.2251 4.73823C23.1748 4.61134 23.112 4.47951 23.034 4.34435ZM3.28467 11.8906C2.13928 11.9446 1.17628 12.9169 1.35307 14.1536C2.07626 19.2124 6.57235 23.25 12.0017 23.25C17.431 23.25 21.9271 19.2124 22.6503 14.1536C22.827 12.9169 21.864 11.9446 20.7187 11.8906C19.3465 11.8258 16.7313 11.75 12.0017 11.75C7.272 11.75 4.65687 11.8258 3.28467 11.8906ZM15.0639 19.3759C14.8563 19.0175 14.9786 18.5586 15.337 18.351C16.7276 17.5455 17.8097 16.2593 18.3571 14.745C18.4979 14.3555 18.9279 14.1538 19.3174 14.2946C19.707 14.4355 19.9086 14.8654 19.7678 15.2549C19.0993 17.1043 17.7822 18.6681 16.0888 19.649C15.7304 19.8566 15.2716 19.7343 15.0639 19.3759Z" fill="url(#paint0_linear_60295_14464)"/>
<defs>
<linearGradient id="paint0_linear_60295_14464" x1="1.33203" y1="11.9661" x2="23.3224" y2="11.9661" gradientUnits="userSpaceOnUse">
<stop stop-color="#E39397"/>
<stop offset="0.5" stop-color="#C779D0"/>
<stop offset="1" stop-color="#899DCC"/>
</linearGradient>
</defs>
</svg>
