<svg width="75" height="74" viewBox="0 0 75 74" fill="none" xmlns="http://www.w3.org/2000/svg">
<path fill-rule="evenodd" clip-rule="evenodd" d="M50.9714 3.8153C50.631 3.47491 50.2883 3.1825 49.9504 2.93152C48.7574 2.0454 47.3971 1.9387 46.1423 2.28963C44.9077 2.6349 43.7572 3.42257 42.8558 4.37011C35.8591 11.725 29.0242 20.2092 26.1029 23.9146C25.5651 24.5969 25.1621 25.4487 25.0597 26.3222C24.9556 27.2114 25.165 28.1546 25.8988 28.8883C26.6325 29.6221 27.5757 29.8315 28.4649 29.7274C29.3384 29.6251 30.1902 29.2221 30.8726 28.6842C34.5778 25.763 43.0616 18.9287 50.4164 11.932C51.3641 11.0304 52.1519 9.87961 52.4972 8.64472C52.8481 7.38962 52.7412 6.02904 51.8549 4.83586C51.604 4.49807 51.3117 4.15556 50.9714 3.8153ZM71.5158 13.3949C71.2752 12.978 71.0199 12.6069 70.7584 12.277C69.8354 11.1123 68.549 10.6571 67.2462 10.6713C65.9643 10.6853 64.6491 11.1484 63.5331 11.8303C54.8712 17.1237 46.0735 23.5498 42.2926 26.3729C41.5964 26.8928 40.9868 27.6112 40.6618 28.4284C40.3311 29.2603 40.2894 30.2257 40.8081 31.1243C41.3271 32.023 42.1839 32.4694 43.0698 32.5989C43.94 32.7263 44.8669 32.5575 45.6653 32.2145C50.0003 30.3518 59.964 25.946 68.879 21.0913C70.0278 20.4657 71.0865 19.5581 71.7397 18.4546C72.4035 17.3331 72.6525 15.9912 72.105 14.6093C71.9501 14.2181 71.7565 13.8116 71.5158 13.3949ZM10.6222 36.6625C7.09057 36.8291 4.12132 39.8271 4.66642 43.6401C6.89626 59.2382 20.7592 71.6873 37.4996 71.6873C54.2399 71.6873 68.1029 59.2382 70.3327 43.6401C70.8777 39.8271 67.9085 36.8291 64.377 36.6625C60.146 36.4627 52.0826 36.229 37.4996 36.229C22.9165 36.229 14.8531 36.4627 10.6222 36.6625ZM46.9415 59.7423C46.3014 58.6371 46.6783 57.2223 47.7834 56.582C52.0712 54.0984 55.4077 50.1328 57.0955 45.4637C57.5297 44.2626 58.8553 43.6408 60.0565 44.075C61.2576 44.5093 61.8792 45.8348 61.445 47.0359C59.3838 52.738 55.3228 57.5598 50.1016 60.5842C48.9965 61.2243 47.5817 60.8474 46.9415 59.7423Z" fill="white"/>
</svg>
