<svg width="24" height="24" viewBox="0 0 24 24" fill="none" xmlns="http://www.w3.org/2000/svg">
<path d="M7.31197 6.72128C7.14883 6.97948 6.93118 7.19886 6.67427 7.36402C6.41737 7.52919 6.12743 7.63614 5.82481 7.67737C5.48044 7.72631 5.13878 7.77887 4.79713 7.83597C3.84284 7.99456 3.16406 8.83465 3.16406 9.80162V17.4377C3.16406 17.9785 3.37889 18.4971 3.76129 18.8795C4.14369 19.2619 4.66233 19.4767 5.20312 19.4767H18.7969C19.3377 19.4767 19.8563 19.2619 20.2387 18.8795C20.6211 18.4971 20.8359 17.9785 20.8359 17.4377V9.80162C20.8359 8.83465 20.1563 7.99456 19.2029 7.83597C18.861 7.779 18.5184 7.72613 18.1752 7.67737C17.8727 7.63601 17.583 7.529 17.3262 7.36384C17.0695 7.19868 16.852 6.97937 16.6889 6.72128L15.944 5.52865C15.7767 5.25687 15.5464 5.0294 15.2725 4.86549C14.9987 4.70159 14.6893 4.60609 14.3707 4.58706C12.7914 4.50223 11.2086 4.50223 9.62925 4.58706C9.31066 4.60609 9.00135 4.70159 8.72749 4.86549C8.45364 5.0294 8.22331 5.25687 8.056 5.52865L7.31197 6.72128Z" stroke="#8F9099" stroke-width="1.5" stroke-linecap="round" stroke-linejoin="round"/>
<path d="M16.0781 12.6797C16.0781 13.2152 15.9726 13.7455 15.7677 14.2403C15.5628 14.7351 15.2624 15.1847 14.8837 15.5634C14.505 15.942 14.0554 16.2424 13.5606 16.4474C13.0658 16.6523 12.5355 16.7578 12 16.7578C11.4645 16.7578 10.9342 16.6523 10.4394 16.4474C9.94459 16.2424 9.49502 15.942 9.11633 15.5634C8.73764 15.1847 8.43725 14.7351 8.2323 14.2403C8.02736 13.7455 7.92187 13.2152 7.92188 12.6797C7.92188 11.5981 8.35153 10.5608 9.11633 9.79602C9.88113 9.03122 10.9184 8.60156 12 8.60156C13.0816 8.60156 14.1189 9.03122 14.8837 9.79602C15.6485 10.5608 16.0781 11.5981 16.0781 12.6797ZM18.1172 10.6406H18.1244V10.6479H18.1172V10.6406Z" stroke="#8F9099" stroke-width="1.5" stroke-linecap="round" stroke-linejoin="round"/>
</svg>
