<svg width="24" height="24" viewBox="0 0 24 24" fill="none" xmlns="http://www.w3.org/2000/svg">
<g clip-path="url(#clip0_60029_4772)">
<path d="M12 2C17.523 2 22 6.477 22 12C22 17.523 17.523 22 12 22C6.477 22 2 17.523 2 12C2 6.477 6.477 2 12 2ZM15.535 8.381L10.585 13.331L8.465 11.21C8.27749 11.0224 8.02312 10.9169 7.75785 10.9168C7.49258 10.9167 7.23814 11.022 7.0505 11.2095C6.86286 11.397 6.75739 11.6514 6.7573 11.9166C6.7572 12.1819 6.86249 12.4364 7.05 12.624L9.808 15.382C9.91015 15.4842 10.0314 15.5653 10.1649 15.6206C10.2984 15.6759 10.4415 15.7044 10.586 15.7044C10.7305 15.7044 10.8736 15.6759 11.0071 15.6206C11.1406 15.5653 11.2618 15.4842 11.364 15.382L16.95 9.796C17.0429 9.70309 17.1166 9.59279 17.1669 9.4714C17.2172 9.35 17.2431 9.21989 17.2431 9.0885C17.2431 8.9571 17.2172 8.827 17.1669 8.7056C17.1166 8.58421 17.0429 8.47391 16.95 8.381C16.8571 8.28809 16.7468 8.21439 16.6254 8.16411C16.504 8.11382 16.3739 8.08794 16.2425 8.08794C16.1111 8.08794 15.981 8.11382 15.8596 8.16411C15.7382 8.21439 15.6279 8.28809 15.535 8.381Z" fill="#8F9099"/>
</g>
<defs>
<clipPath id="clip0_60029_4772">
<rect width="24" height="24" fill="white"/>
</clipPath>
</defs>
</svg>
