<svg width="24" height="24" viewBox="0 0 24 24" fill="none" xmlns="http://www.w3.org/2000/svg">
<g clip-path="url(#clip0_59894_3858)">
<path fill-rule="evenodd" clip-rule="evenodd" d="M3.99837 11.9998C3.99732 10.3745 4.56186 8.79954 5.59514 7.545C6.62843 6.29046 8.06606 5.43458 9.66142 5.12416C11.2568 4.81374 12.9105 5.06814 14.3387 5.84372C15.767 6.6193 16.8809 7.86772 17.4894 9.37482C17.59 9.61892 17.7832 9.81329 18.0266 9.91553C18.2701 10.0178 18.5441 10.0196 18.7888 9.92056C19.0336 9.82154 19.2293 9.62973 19.3332 9.38699C19.4371 9.14424 19.4407 8.87026 19.3434 8.62482C18.8808 7.4715 18.1845 6.42642 17.2983 5.55537C16.4121 4.68432 15.3551 4.00615 14.194 3.56356C13.0329 3.12097 11.7927 2.92354 10.5515 2.9837C9.31035 3.04386 8.09508 3.3603 6.98219 3.91311C5.86931 4.46592 4.88291 5.24312 4.08508 6.1958C3.28726 7.14848 2.69529 8.256 2.34644 9.44865C1.99759 10.6413 1.8994 11.8933 2.05807 13.1257C2.21673 14.3582 2.62881 15.5444 3.26837 16.6098L2.48837 19.2588C2.4371 19.4326 2.43364 19.6171 2.47834 19.7927C2.52305 19.9683 2.61428 20.1286 2.74242 20.2568C2.87057 20.3849 3.03089 20.4761 3.20651 20.5208C3.38213 20.5656 3.56655 20.5621 3.74037 20.5108L6.39037 19.7308C7.45617 20.3683 8.64302 20.777 9.87537 20.9308C10.1386 20.9637 10.4041 20.8907 10.6135 20.7278C10.8229 20.5649 10.959 20.3256 10.9919 20.0623C11.0248 19.7991 10.9517 19.5336 10.7889 19.3242C10.626 19.1148 10.3866 18.9787 10.1234 18.9458C9.09815 18.8182 8.11429 18.4636 7.24337 17.9078C7.07149 17.7978 6.87806 17.7259 6.67607 17.697C6.47408 17.668 6.26823 17.6826 6.07237 17.7398L4.92037 18.0788L5.25937 16.9268C5.37937 16.5188 5.30637 16.0928 5.09137 15.7568C4.37538 14.6347 3.99606 13.3309 3.99837 11.9998ZM19.9984 16.4998C19.9983 15.7232 19.7399 14.9687 19.264 14.355C18.788 13.7414 18.1214 13.3035 17.3692 13.1102C16.617 12.917 15.8219 12.9794 15.1091 13.2877C14.3963 13.5959 13.8063 14.1325 13.4319 14.8129C13.0575 15.4933 12.9201 16.2789 13.0412 17.0461C13.1623 17.8132 13.5352 18.5182 14.101 19.0501C14.6668 19.5821 15.3934 19.9108 16.1666 19.9844C16.9397 20.058 17.7153 19.8724 18.3714 19.4568C18.6415 19.285 18.9668 19.2224 19.2814 19.2818C19.2217 18.9674 19.2839 18.642 19.4554 18.3718C19.811 17.8123 19.9994 17.1628 19.9984 16.4998ZM16.4984 10.9998C17.4539 10.9998 18.393 11.2486 19.2231 11.722C20.0532 12.1953 20.7457 12.8767 21.2323 13.6991C21.7189 14.5215 21.9828 15.4565 21.9981 16.4119C22.0133 17.3674 21.7794 18.3103 21.3194 19.1478L21.7054 20.4588C21.7564 20.6321 21.7598 20.8159 21.7152 20.9909C21.6706 21.1659 21.5797 21.3257 21.452 21.4534C21.3242 21.5811 21.1645 21.6721 20.9895 21.7167C20.8144 21.7612 20.6306 21.7579 20.4574 21.7068L19.1474 21.3208C18.4123 21.7244 17.5947 21.9546 16.757 21.9938C15.9194 22.033 15.0838 21.8801 14.3143 21.5468C13.5448 21.2136 12.8617 20.7088 12.3172 20.071C11.7727 19.4332 11.3813 18.6794 11.1728 17.8671C10.9643 17.0549 10.9443 16.2057 11.1144 15.3846C11.2844 14.5634 11.64 13.792 12.1539 13.1293C12.6678 12.4667 13.3264 11.9303 14.0794 11.5612C14.8324 11.1921 15.6598 11.0001 16.4984 10.9998Z" fill="#8F9099"/>
</g>
<defs>
<clipPath id="clip0_59894_3858">
<rect width="24" height="24" fill="white"/>
</clipPath>
</defs>
</svg>
