<svg width="24" height="24" viewBox="0 0 24 24" fill="none" xmlns="http://www.w3.org/2000/svg">
<g clip-path="url(#clip0_60117_7084)">
<path d="M5 10C5.26264 10 5.52272 10.0517 5.76537 10.1522C6.00802 10.2528 6.2285 10.4001 6.41421 10.5858C6.59993 10.7715 6.74725 10.992 6.84776 11.2346C6.94827 11.4773 7 11.7374 7 12C7 12.2626 6.94827 12.5227 6.84776 12.7654C6.74725 13.008 6.59993 13.2285 6.41421 13.4142C6.2285 13.5999 6.00802 13.7472 5.76537 13.8478C5.52272 13.9483 5.26264 14 5 14C4.46957 14 3.96086 13.7893 3.58579 13.4142C3.21071 13.0391 3 12.5304 3 12C3 11.4696 3.21071 10.9609 3.58579 10.5858C3.96086 10.2107 4.46957 10 5 10ZM12 10C12.2626 10 12.5227 10.0517 12.7654 10.1522C13.008 10.2528 13.2285 10.4001 13.4142 10.5858C13.5999 10.7715 13.7472 10.992 13.8478 11.2346C13.9483 11.4773 14 11.7374 14 12C14 12.2626 13.9483 12.5227 13.8478 12.7654C13.7472 13.008 13.5999 13.2285 13.4142 13.4142C13.2285 13.5999 13.008 13.7472 12.7654 13.8478C12.5227 13.9483 12.2626 14 12 14C11.4696 14 10.9609 13.7893 10.5858 13.4142C10.2107 13.0391 10 12.5304 10 12C10 11.4696 10.2107 10.9609 10.5858 10.5858C10.9609 10.2107 11.4696 10 12 10ZM19 10C19.2626 10 19.5227 10.0517 19.7654 10.1522C20.008 10.2528 20.2285 10.4001 20.4142 10.5858C20.5999 10.7715 20.7472 10.992 20.8478 11.2346C20.9483 11.4773 21 11.7374 21 12C21 12.2626 20.9483 12.5227 20.8478 12.7654C20.7472 13.008 20.5999 13.2285 20.4142 13.4142C20.2285 13.5999 20.008 13.7472 19.7654 13.8478C19.5227 13.9483 19.2626 14 19 14C18.4696 14 17.9609 13.7893 17.5858 13.4142C17.2107 13.0391 17 12.5304 17 12C17 11.4696 17.2107 10.9609 17.5858 10.5858C17.9609 10.2107 18.4696 10 19 10Z" fill="#8F9099"/>
</g>
<defs>
<clipPath id="clip0_60117_7084">
<rect width="24" height="24" fill="white"/>
</clipPath>
</defs>
</svg>
