<svg width="24" height="24" viewBox="0 0 24 24" fill="none" xmlns="http://www.w3.org/2000/svg">
<g clip-path="url(#clip0_60202_9082)">
<path fill-rule="evenodd" clip-rule="evenodd" d="M15.5367 2.80776L21.1937 8.46376C21.3795 8.64949 21.5269 8.87001 21.6275 9.11271C21.728 9.35541 21.7798 9.61555 21.7798 9.87826C21.7798 10.141 21.728 10.4011 21.6275 10.6438C21.5269 10.8865 21.3795 11.107 21.1937 11.2928L17.6717 14.8158L17.6587 14.8278L17.6457 14.8408L13.4867 18.9998H20.0017C20.2669 18.9998 20.5213 19.1051 20.7088 19.2927C20.8964 19.4802 21.0017 19.7345 21.0017 19.9998C21.0017 20.265 20.8964 20.5193 20.7088 20.7069C20.5213 20.8944 20.2669 20.9998 20.0017 20.9998H8.89473C8.49704 20.9994 8.11576 20.8411 7.83473 20.5598L2.80873 15.5358C2.62293 15.35 2.47553 15.1295 2.37497 14.8868C2.27441 14.6441 2.22266 14.384 2.22266 14.1213C2.22266 13.8586 2.27441 13.5984 2.37497 13.3557C2.47553 13.113 2.62293 12.8925 2.80873 12.7068L12.7087 2.80676C13.0838 2.43182 13.5924 2.22119 14.1227 2.22119C14.6531 2.22119 15.1617 2.43282 15.5367 2.80776ZM15.5367 14.1208L10.6587 18.9998H9.10173L4.22373 14.1208L9.88073 8.46376L15.5367 14.1208ZM16.9517 12.7068L11.2947 7.04976L14.1227 4.22176L19.7797 9.87876L16.9517 12.7068Z" fill="#8F9099"/>
</g>
<defs>
<clipPath id="clip0_60202_9082">
<rect width="24" height="24" fill="white"/>
</clipPath>
</defs>
</svg>
