<svg width="44" height="44" viewBox="0 0 44 44" fill="none" xmlns="http://www.w3.org/2000/svg">
<path d="M0 22C0 9.84974 9.84974 0 22 0C34.1503 0 44 9.84974 44 22C44 34.1503 34.1503 44 22 44C9.84974 44 0 34.1503 0 22Z" fill="url(#paint0_linear_60367_2285)"/>
<g clip-path="url(#clip0_60367_2285)">
<path d="M20.5 30C20.5 30.3978 20.658 30.7794 20.9393 31.0607C21.2206 31.342 21.6022 31.5 22 31.5C22.3978 31.5 22.7794 31.342 23.0607 31.0607C23.342 30.7794 23.5 30.3978 23.5 30V23.5H30C30.3978 23.5 30.7794 23.342 31.0607 23.0607C31.342 22.7794 31.5 22.3978 31.5 22C31.5 21.6022 31.342 21.2206 31.0607 20.9393C30.7794 20.658 30.3978 20.5 30 20.5H23.5V14C23.5 13.6022 23.342 13.2206 23.0607 12.9393C22.7794 12.658 22.3978 12.5 22 12.5C21.6022 12.5 21.2206 12.658 20.9393 12.9393C20.658 13.2206 20.5 13.6022 20.5 14V20.5H14C13.6022 20.5 13.2206 20.658 12.9393 20.9393C12.658 21.2206 12.5 21.6022 12.5 22C12.5 22.3978 12.658 22.7794 12.9393 23.0607C13.2206 23.342 13.6022 23.5 14 23.5H20.5V30Z" fill="white"/>
</g>
<defs>
<linearGradient id="paint0_linear_60367_2285" x1="0" y1="22" x2="44" y2="22" gradientUnits="userSpaceOnUse">
<stop stop-color="#E39397"/>
<stop offset="0.5" stop-color="#C779D0"/>
<stop offset="1" stop-color="#899DCC"/>
</linearGradient>
<clipPath id="clip0_60367_2285">
<rect width="24" height="24" fill="white" transform="translate(10 10)"/>
</clipPath>
</defs>
</svg>
