<svg width="24" height="24" viewBox="0 0 24 24" fill="none" xmlns="http://www.w3.org/2000/svg">
<g clip-path="url(#clip0_60144_13153)">
<path fill-rule="evenodd" clip-rule="evenodd" d="M11.206 4.48979C12.0446 4.9929 12.9822 5.30862 13.9543 5.41529C14.9265 5.52197 15.9102 5.41707 16.838 5.10779L18.418 4.58079L17.11 8.50979C16.9978 8.8462 17.0084 9.21147 17.14 9.54079L18.679 13.3868L16.207 14.2108C15.553 14.4287 14.8595 14.5025 14.1743 14.4273C13.489 14.352 12.8282 14.1294 12.237 13.7748C11.3045 13.2151 10.251 12.8879 9.1655 12.8209C8.07998 12.7539 6.99427 12.949 6 13.3898V4.98179C6.00012 4.87236 6.03067 4.76511 6.08824 4.67204C6.14581 4.57898 6.22813 4.50376 6.326 4.45479C7.893 3.67179 9.659 3.56179 11.206 4.48979ZM4 6.99979V4.98179C4 4.00179 4.554 3.10479 5.431 2.66579C7.607 1.57779 10.105 1.49679 12.235 2.77479C12.8262 3.12944 13.487 3.35203 14.1723 3.42729C14.8575 3.50255 15.551 3.42869 16.205 3.21079L19.494 2.11479C19.6876 2.05045 19.8953 2.04123 20.0939 2.08816C20.2925 2.1351 20.4741 2.23634 20.6184 2.38057C20.7627 2.5248 20.8641 2.70632 20.9112 2.90486C20.9583 3.10339 20.9492 3.31111 20.885 3.50479L19.065 8.96879L20.889 13.5298C20.9447 13.6689 20.9713 13.818 20.9673 13.9678C20.9633 14.1176 20.9287 14.265 20.8657 14.401C20.8027 14.5369 20.7126 14.6586 20.6008 14.7585C20.4891 14.8583 20.3581 14.9343 20.216 14.9818L16.838 16.1078C15.9102 16.4171 14.9265 16.522 13.9543 16.4153C12.9822 16.3086 12.0446 15.9929 11.206 15.4898C10.5165 15.076 9.73374 14.8428 8.93019 14.8119C8.12665 14.7809 7.32828 14.9532 6.609 15.3128L6 15.6178V20.9998C6 21.265 5.89464 21.5194 5.70711 21.7069C5.51957 21.8944 5.26522 21.9998 5 21.9998C4.73478 21.9998 4.48043 21.8944 4.29289 21.7069C4.10536 21.5194 4 21.265 4 20.9998V14.9998V6.99979Z" fill="#8F9099"/>
</g>
<defs>
<clipPath id="clip0_60144_13153">
<rect width="24" height="24" fill="white"/>
</clipPath>
</defs>
</svg>
