<svg width="24" height="24" viewBox="0 0 24 24" fill="none" xmlns="http://www.w3.org/2000/svg">
<mask id="mask0_60212_9144" style="mask-type:luminance" maskUnits="userSpaceOnUse" x="0" y="0" width="24" height="24">
<path d="M24 0H0V24H24V0Z" fill="white"/>
</mask>
<g mask="url(#mask0_60212_9144)">
<path d="M23.52 12.273C23.52 11.422 23.4437 10.6039 23.3018 9.81836H12V14.4602H18.4582C18.18 15.9602 17.3346 17.2311 16.0637 18.082V21.093H19.9418C22.2109 19.0039 23.52 15.9274 23.52 12.273Z" fill="#4285F4"/>
<path d="M11.9971 24.0003C15.2371 24.0003 17.9534 22.9257 19.9388 21.093L16.0607 18.0821C14.9862 18.8021 13.6116 19.2275 11.9971 19.2275C8.8716 19.2275 6.2262 17.1166 5.28252 14.2803H1.27344V17.3894C3.24804 21.3112 7.3062 24.0003 11.9971 24.0003Z" fill="#34A853"/>
<path d="M5.2854 14.2799C5.0454 13.5599 4.90908 12.7908 4.90908 11.9999C4.90908 11.209 5.0454 10.4399 5.2854 9.71992V6.61084H1.27632C0.463679 8.23084 0 10.0636 0 11.9999C0 13.9362 0.463679 15.769 1.27632 17.389L5.2854 14.2799Z" fill="#FBBC04"/>
<path d="M11.9971 4.77276C13.7588 4.77276 15.3407 5.37816 16.5844 6.56724L20.0262 3.1254C17.948 1.18908 15.2316 0 11.9971 0C7.3062 0 3.24804 2.68908 1.27344 6.61092L5.28252 9.72C6.2262 6.88368 8.8716 4.77276 11.9971 4.77276Z" fill="#E94235"/>
</g>
</svg>
