<svg width="24" height="24" viewBox="0 0 24 24" fill="none" xmlns="http://www.w3.org/2000/svg">
<g clip-path="url(#clip0_59994_3390)">
<path d="M2.90876 6.74981C5.80876 1.72781 12.2298 0.00680971 17.2518 2.90681C19.2415 4.05549 20.7997 5.82498 21.6875 7.94406C22.5752 10.0631 22.7436 12.4149 22.1668 14.6388C21.8488 15.8638 20.3568 16.2088 19.5088 15.3848L19.4138 15.2848L17.1628 12.6978C16.1598 11.5458 17.1868 9.80781 18.6408 10.0698L18.7738 10.0998L19.2918 10.2338C18.9013 8.62461 17.9893 7.18986 16.698 6.15332C15.4067 5.11678 13.8086 4.53673 12.1531 4.50365C10.4975 4.47056 8.87755 4.9863 7.54584 5.97041C6.21413 6.95453 5.24554 8.3517 4.79113 9.94402C4.33673 11.5363 4.42206 13.2343 5.03382 14.773C5.64558 16.3117 6.74937 17.6047 8.17304 18.4504C9.59671 19.296 11.2602 19.6467 12.9041 19.4478C14.548 19.2489 16.0799 18.5116 17.2608 17.3508C17.4012 17.2127 17.5675 17.1035 17.7501 17.0296C17.9327 16.9558 18.1281 16.9186 18.3251 16.9202C18.5221 16.9218 18.7169 16.9622 18.8983 17.0391C19.0797 17.116 19.2441 17.2279 19.3823 17.3683C19.5204 17.5088 19.6295 17.675 19.7034 17.8577C19.7773 18.0403 19.8145 18.2357 19.8129 18.4327C19.8113 18.6297 19.7709 18.8244 19.694 19.0058C19.6171 19.1872 19.5052 19.3517 19.3648 19.4898C16.0838 22.7178 10.9348 23.5078 6.75176 21.0928C1.72976 18.1928 0.00876284 11.7728 2.90876 6.74981ZM12.0018 5.49981C12.3745 5.4998 12.7339 5.63857 13.0099 5.88906C13.2859 6.13955 13.4587 6.48383 13.4948 6.85481L13.5018 6.99981V11.3788L15.5618 13.4388C15.8349 13.7104 15.993 14.0767 16.0035 14.4617C16.0139 14.8468 15.8759 15.2211 15.6179 15.5071C15.3599 15.7931 15.0017 15.9689 14.6177 15.9981C14.2336 16.0273 13.853 15.9076 13.5548 15.6638L13.4408 15.5608L10.9408 13.0608C10.6955 12.8156 10.5429 12.4929 10.5088 12.1478L10.5018 11.9998V6.99981C10.5018 6.60198 10.6598 6.22045 10.9411 5.93915C11.2224 5.65785 11.6039 5.49981 12.0018 5.49981Z" fill="#8F9099"/>
</g>
<defs>
<clipPath id="clip0_59994_3390">
<rect width="24" height="24" fill="white"/>
</clipPath>
</defs>
</svg>
