<svg width="24" height="24" viewBox="0 0 24 24" fill="none" xmlns="http://www.w3.org/2000/svg">
<g clip-path="url(#clip0_59994_3385)">
<path d="M3.34086 6.99989C6.10186 2.21689 12.2179 0.579887 17.0009 3.33989C18.8959 4.43383 20.3799 6.11895 21.2256 8.13702C22.0712 10.1551 22.2319 12.3948 21.6829 14.5129C21.4659 15.3449 20.4609 15.5869 19.8749 15.0439L19.7909 14.9569L17.5389 12.3699C16.8539 11.5829 17.5469 10.3979 18.5359 10.5599L18.6459 10.5829L19.9279 10.9179C19.6815 9.11754 18.8296 7.45469 17.5124 6.203C16.1951 4.95131 14.4909 4.18537 12.6804 4.03122C10.8698 3.87706 9.0607 4.34389 7.55078 5.35488C6.04087 6.36586 4.92012 7.86076 4.37298 9.59355C3.82584 11.3263 3.88491 13.1938 4.54047 14.8885C5.19603 16.5833 6.40901 18.0043 7.9798 18.9179C9.55059 19.8314 11.3856 20.183 13.1828 19.9147C14.98 19.6464 16.6323 18.7743 17.8679 17.4419C17.9565 17.3433 18.0638 17.2634 18.1835 17.2067C18.3033 17.1499 18.4331 17.1176 18.5655 17.1115C18.6979 17.1054 18.8302 17.1257 18.9547 17.1711C19.0791 17.2166 19.1933 17.2864 19.2906 17.3764C19.3879 17.4663 19.4663 17.5748 19.5213 17.6953C19.5763 17.8159 19.6068 17.9462 19.611 18.0787C19.6152 18.2111 19.5931 18.3431 19.5458 18.4669C19.4986 18.5907 19.4272 18.7039 19.3359 18.7999C16.2339 22.1509 11.1239 23.0399 7.00086 20.6599C2.21786 17.8999 0.580864 11.7829 3.34086 6.99989ZM12.0009 5.99989C12.2458 5.99992 12.4822 6.08984 12.6652 6.2526C12.8483 6.41536 12.9652 6.63964 12.9939 6.88289L13.0009 6.99989V11.5859L15.7079 14.2929C15.8872 14.4728 15.9913 14.7143 15.9991 14.9683C16.0068 15.2222 15.9176 15.4696 15.7496 15.6602C15.5816 15.8507 15.3473 15.9702 15.0944 15.9943C14.8415 16.0184 14.5889 15.9453 14.3879 15.7899L14.2939 15.7069L11.2939 12.7069C11.1384 12.5513 11.0386 12.3489 11.0099 12.1309L11.0009 11.9999V6.99989C11.0009 6.73467 11.1062 6.48032 11.2938 6.29278C11.4813 6.10524 11.7356 5.99989 12.0009 5.99989Z" fill="#8F9099"/>
</g>
<defs>
<clipPath id="clip0_59994_3385">
<rect width="24" height="24" fill="white"/>
</clipPath>
</defs>
</svg>
