<svg width="24" height="24" viewBox="0 0 24 24" fill="none" xmlns="http://www.w3.org/2000/svg">
<g clip-path="url(#clip0_59894_3848)">
<path fill-rule="evenodd" clip-rule="evenodd" d="M5.00211 9C5.00211 5.13401 8.13612 2 12.0022 2C15.8682 2 19.0021 5.13401 19.0021 9V12.7639L20.8242 16.4081C21.1899 17.1395 20.6581 18 19.8404 18H15.8759C15.4319 19.7252 13.8658 21 12.002 21C10.1382 21 8.57201 19.7252 8.12797 18H4.16392C3.3462 18 2.81435 17.1395 3.18005 16.4081L5.00211 12.7639V9ZM10.2696 18C10.6154 18.5978 11.2617 19 12.002 19C12.7423 19 13.3885 18.5978 13.7344 18H10.2696ZM12.0022 4C9.24069 4 7.00211 6.23858 7.00211 9V12.7639C7.00211 13.0744 6.92982 13.3806 6.79097 13.6584L5.62015 16H18.3841L17.2133 13.6584C17.0745 13.3806 17.0022 13.0744 17.0022 12.7639V9C17.0022 6.23858 14.7636 4 12.0022 4Z" fill="#8F9099"/>
</g>
<defs>
<clipPath id="clip0_59894_3848">
<rect width="24" height="24" fill="white"/>
</clipPath>
</defs>
</svg>
