<svg width="24" height="24" viewBox="0 0 24 24" fill="none" xmlns="http://www.w3.org/2000/svg">
<g clip-path="url(#clip0_59894_3843)">
<path d="M12.0022 2C8.13612 2 5.00211 5.13401 5.00211 9V12.5279C5.00211 12.6831 4.96597 12.8362 4.89654 12.9751L3.18005 16.4081C2.81435 17.1395 3.3462 18 4.16392 18H19.8404C20.6581 18 21.1899 17.1395 20.8242 16.4081L19.1077 12.9751C19.0382 12.8362 19.0021 12.6831 19.0021 12.5279V9C19.0021 5.13401 15.8682 2 12.0022 2ZM12.0019 21C10.6957 21 9.58444 20.1652 9.1726 19H14.8312C14.4194 20.1652 13.3082 21 12.0019 21Z" fill="#8F9099"/>
</g>
<defs>
<clipPath id="clip0_59894_3843">
<rect width="24" height="24" fill="white"/>
</clipPath>
</defs>
</svg>
