<svg width="24" height="24" viewBox="0 0 24 24" fill="none" xmlns="http://www.w3.org/2000/svg">
<g clip-path="url(#clip0_60217_8316)">
<path fill-rule="evenodd" clip-rule="evenodd" d="M18.1663 2.76485L18.4213 2.79685C19.0953 2.88985 19.9873 3.01485 20.4923 3.52085C20.9063 3.93385 21.0653 4.60585 21.1603 5.20585L21.2163 5.59185C21.3423 6.50185 21.3753 7.69385 21.1603 9.01785C20.7363 11.6308 19.3453 14.7489 15.8523 17.1629C15.8333 17.3509 15.8323 17.5409 15.8363 17.7309L15.8463 18.0149C15.8623 18.4519 15.8783 18.8889 15.7563 19.3129C15.5663 19.9729 14.8893 20.4079 14.2563 20.7199L13.9463 20.8669L13.5463 21.0429C12.7983 21.3609 11.7883 21.6869 11.1553 21.0529C10.7753 20.6739 10.6193 20.1179 10.4923 19.5649L10.4453 19.3579C10.3923 19.0965 10.3256 18.8381 10.2453 18.5839C10.1953 18.4379 10.1413 18.2889 10.0833 18.1389C10.0194 18.2172 9.95168 18.2923 9.88027 18.3639C9.53527 18.7089 9.02027 18.9499 8.59627 19.1189C8.13327 19.3019 7.60927 19.4619 7.12427 19.5939L6.87527 19.6599L6.39827 19.7789L5.96627 19.8789L5.44927 19.9889L5.12627 20.0519C4.96518 20.0817 4.79925 20.0719 4.6428 20.0233C4.48634 19.9747 4.34406 19.8888 4.22821 19.7729C4.11237 19.6571 4.02644 19.5148 3.97785 19.3583C3.92925 19.2019 3.91944 19.0359 3.94927 18.8749L4.03527 18.4439L4.18927 17.7459L4.31327 17.2359L4.40727 16.8759C4.53927 16.3919 4.69927 15.8679 4.88327 15.4059C5.05127 14.9809 5.29227 14.4659 5.63727 14.1209L5.71727 14.0439L5.65327 14.0179C5.48237 13.9529 5.30926 13.8938 5.13427 13.8409L4.85727 13.7559C4.16327 13.5459 3.42127 13.3199 2.96027 12.8579C2.40027 12.2989 2.58927 11.4479 2.85927 10.7399L2.96927 10.4659L3.14627 10.0659L3.29327 9.75585C3.60527 9.12385 4.04027 8.44685 4.70027 8.25685C5.05027 8.15685 5.41427 8.15085 5.78027 8.16085L6.00027 8.16785C6.28627 8.17785 6.57127 8.18885 6.85027 8.16185C9.26427 4.66785 12.3823 3.27685 14.9953 2.85285C16.0435 2.68093 17.1101 2.65133 18.1663 2.76485ZM8.35427 15.4399C8.19688 15.3234 8.00878 15.2556 7.81327 15.2449C7.61775 15.2343 7.42339 15.2812 7.25427 15.3799L7.14427 15.4539L7.05127 15.5369L6.92627 15.6949C6.66627 16.0709 6.51827 16.5909 6.40327 17.0769L6.29527 17.5449L6.24427 17.7579L6.43527 17.7119L6.85327 17.6159C7.43127 17.4809 8.07227 17.3059 8.46627 16.9509C8.63758 16.7796 8.74093 16.552 8.75711 16.3104C8.77329 16.0687 8.70122 15.8294 8.55427 15.6369L8.47227 15.5429L8.44827 15.5199L8.35427 15.4399ZM15.5373 8.46585C15.3516 8.2801 15.1311 8.13273 14.8885 8.03218C14.6458 7.93162 14.3858 7.87985 14.1231 7.8798C13.8605 7.87975 13.6004 7.93144 13.3577 8.03191C13.115 8.13238 12.8945 8.27966 12.7088 8.46535C12.523 8.65104 12.3757 8.8715 12.2751 9.11414C12.1745 9.35678 12.1228 9.61685 12.1227 9.8795C12.1227 10.1421 12.1744 10.4022 12.2748 10.6449C12.3753 10.8876 12.5226 11.1081 12.7083 11.2939C13.0833 11.669 13.592 11.8798 14.1224 11.8799C14.6529 11.88 15.1616 11.6694 15.5368 11.2944C15.9119 10.9193 16.1227 10.4107 16.1228 9.8802C16.1229 9.34976 15.9123 8.841 15.5373 8.46585Z" fill="#8F9099"/>
</g>
<defs>
<clipPath id="clip0_60217_8316">
<rect width="24" height="24" fill="white"/>
</clipPath>
</defs>
</svg>
