<svg width="24" height="24" viewBox="0 0 24 24" fill="none" xmlns="http://www.w3.org/2000/svg">
<path fill-rule="evenodd" clip-rule="evenodd" d="M5.45558 8.7039C5.15405 9.43185 4.99886 10.2121 4.99886 11C4.99886 12.5913 5.631 14.1174 6.75622 15.2426C7.88143 16.3679 9.40756 17 10.9989 17C12.5902 17 14.1163 16.3679 15.2415 15.2426C16.3667 14.1174 16.9989 12.5913 16.9989 11C16.9989 10.2121 16.8437 9.43185 16.5421 8.7039C16.2406 7.97594 15.7986 7.31451 15.2415 6.75736C14.6843 6.20021 14.0229 5.75825 13.295 5.45672C12.567 5.15519 11.7868 5 10.9989 5C10.2109 5 9.43071 5.15519 8.70275 5.45672C7.9748 5.75825 7.31337 6.20021 6.75622 6.75736C6.19906 7.31451 5.75711 7.97594 5.45558 8.7039ZM7.339 3.88684C8.471 3.30422 9.72572 3.00018 10.9989 3C12.496 2.99983 13.9631 3.41976 15.2333 4.21202C16.5036 5.00429 17.5261 6.1371 18.1845 7.48165C18.8429 8.82619 19.1109 10.3285 18.9578 11.8178C18.8048 13.307 18.237 14.7235 17.3189 15.906L20.7059 19.293C20.888 19.4816 20.9888 19.7342 20.9865 19.9964C20.9843 20.2586 20.8791 20.5094 20.6937 20.6948C20.5083 20.8802 20.2575 20.9854 19.9953 20.9877C19.7331 20.99 19.4805 20.8892 19.2919 20.707L15.9049 17.32C14.8991 18.1006 13.7215 18.6298 12.4701 18.8638C11.2186 19.0977 9.92938 19.0296 8.70953 18.6651C7.48969 18.3006 6.37446 17.6502 5.45652 16.768C4.53859 15.8858 3.84446 14.7973 3.43183 13.5928C3.0192 12.3884 2.89998 11.1029 3.08409 9.84315C3.26819 8.5834 3.7503 7.38577 4.49034 6.3498C5.23038 5.31384 6.20699 4.46946 7.339 3.88684Z" fill="#8F9099"/>
</svg>
