<svg width="24" height="24" viewBox="0 0 24 24" fill="none" xmlns="http://www.w3.org/2000/svg">
<g clip-path="url(#clip0_59944_4153)">
<path d="M10.114 4.4911C10.19 3.6961 11.02 3.0411 11.857 3.5191C13.597 4.5381 15.239 5.6991 16.827 6.9401C18.787 8.4881 20.36 9.9471 21.474 11.1121C21.957 11.6191 21.912 12.4201 21.45 12.9041C20.3468 14.0452 19.18 15.1229 17.955 16.1321C16.017 17.7191 14.01 19.2571 11.825 20.4901C11.084 20.9081 10.281 20.4301 10.138 19.6891L10.121 19.5761L9.894 16.0021C8.078 16.0401 6.32 16.6641 4.914 17.8251L4.649 18.0471L4.521 18.1511L4.274 18.3431C4.234 18.3731 4.194 18.4031 4.154 18.4311L3.924 18.5911C3.85257 18.6381 3.77988 18.6831 3.706 18.7261L3.5 18.8371C2.534 19.3141 2 18.8921 2 17.0001C2 12.5961 5.245 8.6771 9.632 8.0831L9.891 8.0521L10.114 4.4911ZM12.023 5.9651L11.831 9.4371C11.8245 9.55579 11.776 9.66829 11.6941 9.75442C11.6121 9.84055 11.5022 9.89468 11.384 9.9071L10.023 10.0491C6.958 10.4151 4.526 12.8111 4.075 15.9431C5.57404 14.8378 7.35314 14.1754 9.21 14.0311L9.607 14.0081L11.311 13.9721C11.4406 13.9693 11.5662 14.017 11.6614 14.105C11.7565 14.1931 11.8138 14.3147 11.821 14.4441L12.018 18.0401C13.621 17.0191 15.149 15.8441 16.682 14.5901C17.6721 13.7676 18.6253 12.9017 19.539 11.9951L19.281 11.7391L18.725 11.2061C17.7194 10.264 16.6737 9.36551 15.591 8.5131C14.4427 7.60775 13.252 6.75745 12.023 5.9651Z" fill="#8F9099"/>
</g>
<defs>
<clipPath id="clip0_59944_4153">
<rect width="24" height="24" fill="white"/>
</clipPath>
</defs>
</svg>
