<svg width="24" height="24" viewBox="0 0 24 24" fill="none" xmlns="http://www.w3.org/2000/svg">
<g clip-path="url(#clip0_60051_5173)">
<path fill-rule="evenodd" clip-rule="evenodd" d="M10.9193 2.86819C11.0293 2.67935 11.1869 2.52267 11.3764 2.41377C11.5659 2.30487 11.7807 2.24756 11.9993 2.24756C12.2178 2.24756 12.4326 2.30487 12.6221 2.41377C12.8116 2.52267 12.9692 2.67935 13.0793 2.86819L15.8743 7.66619L21.3023 8.84219C21.5158 8.88859 21.7134 8.99014 21.8754 9.13673C22.0374 9.28331 22.1582 9.4698 22.2257 9.67762C22.2932 9.88543 22.305 10.1073 22.26 10.3211C22.215 10.5349 22.1148 10.7332 21.9693 10.8962L18.2693 15.0372L18.8293 20.5622C18.8513 20.7797 18.816 20.9993 18.7267 21.1989C18.6374 21.3985 18.4973 21.5712 18.3204 21.6997C18.1435 21.8283 17.9359 21.9082 17.7185 21.9314C17.5011 21.9546 17.2813 21.9204 17.0813 21.8322L11.9993 19.5922L6.91725 21.8322C6.71717 21.9204 6.49744 21.9546 6.28001 21.9314C6.06257 21.9082 5.85504 21.8283 5.67812 21.6997C5.50121 21.5712 5.36112 21.3985 5.27182 21.1989C5.18253 20.9993 5.14716 20.7797 5.16925 20.5622L5.72925 15.0372L2.02925 10.8972C1.88348 10.7342 1.78301 10.5359 1.73787 10.3219C1.69272 10.108 1.70449 9.88592 1.772 9.67795C1.8395 9.46997 1.96038 9.28334 2.12256 9.13669C2.28474 8.99004 2.48256 8.88849 2.69625 8.84219L8.12425 7.66619L10.9193 2.86819ZM11.9993 4.98719L9.68625 8.95919C9.59879 9.10912 9.48107 9.23918 9.34058 9.3411C9.20009 9.44303 9.03991 9.51458 8.87025 9.55119L4.37825 10.5242L7.44025 13.9512C7.67425 14.2132 7.78725 14.5612 7.75225 14.9102L7.28925 19.4832L11.4953 17.6292C11.6541 17.5592 11.8257 17.5231 11.9993 17.5231C12.1728 17.5231 12.3444 17.5592 12.5033 17.6292L16.7093 19.4832L16.2463 14.9102C16.2287 14.7375 16.2472 14.5631 16.3008 14.3979C16.3543 14.2328 16.4417 14.0807 16.5573 13.9512L19.6203 10.5242L15.1283 9.55119C14.9586 9.51458 14.7984 9.44303 14.6579 9.3411C14.5174 9.23918 14.3997 9.10912 14.3123 8.95919L11.9993 4.98719Z" fill="#8F9099"/>
</g>
<defs>
<clipPath id="clip0_60051_5173">
<rect width="24" height="24" fill="white"/>
</clipPath>
</defs>
</svg>
