<svg width="16" height="16" viewBox="0 0 16 16" fill="none" xmlns="http://www.w3.org/2000/svg">
<g clip-path="url(#clip0_60576_3686)">
<path d="M2.57954 1.91179C2.75458 1.73664 2.98837 1.63265 3.23567 1.61997C3.48296 1.60728 3.72617 1.6868 3.91821 1.84313L3.99421 1.91179L5.44888 3.36713C6.2775 3.12284 7.13699 2.99912 8.00088 2.99979C10.4855 2.99979 12.7375 4.00846 14.3649 5.63579C14.5524 5.82339 14.6577 6.07779 14.6576 6.34303C14.6576 6.60827 14.5521 6.86262 14.3645 7.05013C14.2717 7.14297 14.1614 7.21661 14.04 7.26684C13.9187 7.31707 13.7886 7.34291 13.6573 7.34288C13.3921 7.34281 13.1377 7.23739 12.9502 7.04979C12.2321 6.32908 11.3649 5.77422 10.4096 5.42411C9.45433 5.07401 8.434 4.93715 7.42021 5.02313L7.13488 5.05246L7.75354 5.67113C8.62639 5.63594 9.49706 5.78218 10.3105 6.10061C11.124 6.41904 11.8625 6.90273 12.4795 7.52113C12.5724 7.61401 12.6461 7.72429 12.6964 7.84565C12.7467 7.96702 12.7725 8.09709 12.7725 8.22846C12.7725 8.35982 12.7467 8.4899 12.6964 8.61127C12.6461 8.73263 12.5724 8.8429 12.4795 8.93579C12.3867 9.02868 12.2764 9.10236 12.155 9.15264C12.0337 9.20291 11.9036 9.22878 11.7722 9.22878C11.6408 9.22878 11.5108 9.20291 11.3894 9.15264C11.268 9.10236 11.1578 9.02868 11.0649 8.93579C10.9798 8.85062 10.8913 8.76899 10.7995 8.69113L10.6595 8.57779L13.4222 11.3398C13.6057 11.5206 13.7123 11.7653 13.7199 12.0228C13.7274 12.2803 13.6353 12.5308 13.4627 12.7221C13.2901 12.9133 13.0503 13.0306 12.7934 13.0494C12.5365 13.0682 12.2822 12.9872 12.0835 12.8231L12.0075 12.7545L2.57954 3.32646C2.48662 3.23359 2.4129 3.12332 2.36261 3.00196C2.31231 2.88059 2.28642 2.7505 2.28642 2.61913C2.28642 2.48775 2.31231 2.35766 2.36261 2.23629C2.4129 2.11493 2.48662 2.00466 2.57954 1.91179ZM8.00088 10.9998L8.09688 11.0045C8.35259 11.0291 8.589 11.1512 8.75709 11.3455C8.92519 11.5398 9.01207 11.7913 8.99972 12.0479C8.98738 12.3045 8.87675 12.5465 8.69078 12.7237C8.50482 12.901 8.25777 12.9998 8.00088 12.9998C7.74398 12.9998 7.49694 12.901 7.31097 12.7237C7.125 12.5465 7.01438 12.3045 7.00203 12.0479C6.98969 11.7913 7.07657 11.5398 7.24466 11.3455C7.41275 11.1512 7.64917 11.0291 7.90488 11.0045L8.00088 10.9998ZM6.69021 8.57446L8.53621 10.4211C8.36377 10.3627 8.18293 10.333 8.00088 10.3331C7.58621 10.3331 7.20821 10.4831 6.91621 10.7338L6.82288 10.8211C6.63537 11.0087 6.38102 11.1141 6.11578 11.1142C5.85054 11.1143 5.59614 11.009 5.40854 10.8215C5.22095 10.634 5.11552 10.3796 5.11546 10.1144C5.1154 9.84912 5.2207 9.59472 5.40821 9.40713C5.72608 9.08917 6.0996 8.83225 6.51021 8.64913L6.69021 8.57446ZM4.70554 6.59046L6.18088 8.06579C5.71835 8.28051 5.29725 8.575 4.93688 8.93579C4.84403 9.02868 4.7338 9.10237 4.61248 9.15266C4.49115 9.20295 4.36111 9.22885 4.22978 9.22888C4.09845 9.22891 3.96839 9.20307 3.84704 9.15284C3.7257 9.10261 3.61543 9.02897 3.52254 8.93613C3.42965 8.84328 3.35596 8.73305 3.30568 8.61173C3.25539 8.4904 3.22949 8.36036 3.22946 8.22903C3.22943 8.0977 3.25526 7.96764 3.3055 7.84629C3.35573 7.72495 3.42937 7.61468 3.52221 7.52179C3.87835 7.16555 4.27558 6.85291 4.70554 6.59046ZM2.78221 4.66646L4.22221 6.10646C3.79821 6.37846 3.40554 6.69513 3.05088 7.04979C2.95905 7.14692 2.84869 7.22465 2.7263 7.2784C2.60392 7.33214 2.47201 7.3608 2.33836 7.36269C2.20471 7.36458 2.07204 7.33966 1.94819 7.2894C1.82433 7.23914 1.71181 7.16456 1.61728 7.07007C1.52274 6.97558 1.44811 6.86309 1.39779 6.73926C1.34747 6.61543 1.32249 6.48277 1.32431 6.34912C1.32614 6.21547 1.35474 6.08355 1.40843 5.96114C1.46211 5.83873 1.53979 5.72833 1.63688 5.63646C1.99021 5.28179 2.37354 4.95713 2.78221 4.66646Z" fill="white"/>
</g>
<defs>
<clipPath id="clip0_60576_3686">
<rect width="16" height="16" fill="white"/>
</clipPath>
</defs>
</svg>
